<svg width="20" height="14" viewBox="0 0 20 14" fill="none" xmlns="http://www.w3.org/2000/svg">
<g clip-path="url(#clip0_398_14)">
<path d="M19.3857 13.4836C19.359 13.5723 19.3038 13.6496 19.2287 13.7037C19.1536 13.7579 19.0628 13.7858 18.9703 13.7832C18.9178 13.7809 18.8664 13.7679 18.8191 13.745C18.7719 13.722 18.7298 13.6897 18.6956 13.65C18.6613 13.6102 18.6355 13.5638 18.6198 13.5137C18.6041 13.4636 18.5988 13.4109 18.6042 13.3586C18.599 12.99 18.6029 12.6227 18.6029 12.2384H1.30028C1.30028 12.5406 1.30154 12.8402 1.30028 13.1385C1.29887 13.2427 1.30154 13.3481 1.28991 13.4511C1.28122 13.5376 1.24216 13.6182 1.17966 13.6787C1.11717 13.7392 1.03528 13.7755 0.948521 13.7813C0.859356 13.7936 0.76878 13.7727 0.69407 13.7225C0.61936 13.6723 0.565744 13.5963 0.543449 13.5091C0.524912 13.4378 0.516183 13.3644 0.517504 13.2907C0.516455 11.5154 0.516455 9.74046 0.517504 7.96597C0.500508 7.52598 0.633196 7.09323 0.893898 6.7384C1.1546 6.38356 1.52791 6.1276 1.95286 6.01232C2.07866 5.97316 2.09344 5.90932 2.09344 5.80113C2.09093 4.68357 2.087 3.56601 2.09219 2.44844C2.07736 1.97388 2.23552 1.51011 2.53722 1.14349C2.83892 0.776876 3.26358 0.532415 3.73213 0.455638C3.86567 0.435253 4.00073 0.426572 4.13578 0.429692C8.0109 0.426966 11.8863 0.426494 15.7621 0.428277C16.2398 0.406683 16.7089 0.560602 17.0809 0.861013C17.453 1.16142 17.7023 1.58757 17.7818 2.0591C17.8051 2.21077 17.8147 2.36424 17.8104 2.51763C17.8123 3.6104 17.8116 4.70317 17.8084 5.79594C17.8084 5.91844 17.8345 5.97568 17.9634 6.01609C18.3243 6.11446 18.6485 6.3164 18.896 6.59698C19.1434 6.87755 19.3032 7.22447 19.3557 7.59486C19.3635 7.62867 19.3753 7.66374 19.3857 7.6977V13.4836ZM1.30028 9.85122H18.5847C18.5927 9.82488 18.5979 9.7978 18.6004 9.77039C18.6018 9.15052 18.6108 8.52907 18.5952 7.91046C18.5903 7.72677 18.5468 7.54617 18.4675 7.38037C18.3614 7.16023 18.1901 6.97804 17.9769 6.8585C17.7637 6.73896 17.519 6.68784 17.2758 6.71207C12.3953 6.71343 7.51389 6.7139 2.63155 6.71349C2.60167 6.71349 2.57038 6.71207 2.54034 6.71349C2.37544 6.70699 2.21098 6.73479 2.05738 6.79513C1.90378 6.85548 1.76437 6.94705 1.64799 7.06406C1.53161 7.18106 1.44078 7.32095 1.38125 7.47487C1.32172 7.62879 1.2948 7.7934 1.30217 7.95826C1.29572 8.30861 1.30091 8.65896 1.30091 9.00805L1.30028 9.85122ZM17.027 5.92237V5.72046C17.027 4.65118 17.027 3.58226 17.027 2.5137C17.0434 2.33811 17.0208 2.16106 16.9609 1.99521C16.9009 1.82936 16.805 1.67883 16.68 1.55437C16.5551 1.42991 16.4041 1.33461 16.2381 1.27529C16.072 1.21597 15.8948 1.19409 15.7193 1.21122H4.18406C4.00844 1.19402 3.83119 1.21583 3.66498 1.2751C3.49878 1.33438 3.34772 1.42964 3.22261 1.55409C3.09751 1.67853 3.00144 1.82908 2.94129 1.99497C2.88114 2.16086 2.85838 2.33799 2.87465 2.5137V5.91844H3.90762C3.8888 5.71512 3.89096 5.51041 3.91406 5.30753C4.04301 4.72147 4.17856 4.13399 4.35829 3.56208C4.41625 3.34458 4.54422 3.15222 4.72242 3.01472C4.90063 2.87721 5.11915 2.80222 5.34424 2.80131C6.25863 2.77662 7.17429 2.78181 8.08869 2.80005C8.35568 2.81249 8.6092 2.92095 8.80258 3.10546C8.99596 3.28997 9.1162 3.53812 9.14115 3.80424C9.19646 4.50903 9.18988 5.21731 9.12149 5.92095H10.7956C10.7761 5.84225 10.7631 5.76211 10.7566 5.68131C10.7514 5.07433 10.7226 4.46468 10.7578 3.86037C10.7682 3.57021 10.8923 3.29577 11.1034 3.09638C11.3144 2.897 11.5955 2.78869 11.8858 2.79486C12.7636 2.77788 13.642 2.77872 14.5208 2.79738C14.7463 2.78815 14.9683 2.85527 15.1509 2.98788C15.3336 3.12049 15.4661 3.31082 15.5272 3.52811C15.8359 4.28815 15.9909 5.10188 15.9832 5.92221L17.027 5.92237ZM18.594 10.657H1.30028V11.4138H18.5938L18.594 10.657ZM6.50378 5.92882C6.97144 5.92882 7.43768 5.93023 7.90408 5.92756C8.22188 5.9263 8.37158 5.78163 8.37299 5.46777C8.37677 4.98847 8.37677 4.51044 8.37425 4.03115C8.37158 3.71461 8.22439 3.57135 7.90659 3.57009C7.11469 3.56863 6.32232 3.56863 5.52947 3.57009C5.47408 3.56252 5.41774 3.56604 5.36372 3.58046C5.30971 3.59488 5.25911 3.61991 5.21486 3.65408C5.17062 3.68826 5.13362 3.7309 5.10602 3.77952C5.07842 3.82814 5.06078 3.88176 5.05411 3.93727C4.93156 4.41803 4.81132 4.9 4.69339 5.38317C4.66739 5.44836 4.65899 5.51925 4.66904 5.58871C4.67909 5.65818 4.70723 5.72378 4.75065 5.77893C4.79406 5.83409 4.85121 5.87685 4.91637 5.90294C4.98153 5.92903 5.05241 5.93752 5.12189 5.92756C5.58294 5.93023 6.04399 5.92882 6.50378 5.92882ZM13.3876 5.92882C13.8408 5.92882 14.2954 5.93023 14.7488 5.92882C15.1277 5.92756 15.2919 5.72314 15.202 5.36099C15.0861 4.89072 14.9689 4.42138 14.8504 3.95299C14.8451 3.89412 14.8276 3.83699 14.7992 3.7852C14.7707 3.73341 14.7318 3.68809 14.6849 3.6521C14.638 3.61612 14.5841 3.59025 14.5267 3.57614C14.4693 3.56202 14.4096 3.55996 14.3514 3.57009H12.0161C11.6722 3.57135 11.5286 3.70942 11.5275 4.04671C11.5238 4.51311 11.525 4.97809 11.5275 5.44434C11.529 5.78556 11.6691 5.92756 12.0083 5.92882C12.468 5.93023 12.9278 5.92882 13.3876 5.92882Z" fill="black"/>
</g>
<defs>
<clipPath id="clip0_398_14">
<rect width="18.8698" height="13.3563" fill="white" transform="translate(0.515961 0.42749)"/>
</clipPath>
</defs>
</svg>
