<svg width="12" height="13" viewBox="0 0 12 13" fill="none" xmlns="http://www.w3.org/2000/svg">
<path d="M0.606918 12.3347V9.92758C0.606918 9.15084 0.886643 8.40594 1.38454 7.85671C1.88243 7.30747 2.55774 6.9989 3.26187 6.9989H6.03628C6.74041 6.9989 7.41571 7.30747 7.91361 7.85671C8.4115 8.40594 8.6912 9.15084 8.6912 9.92758V12.3347" stroke="black" stroke-width="1.02069" stroke-miterlimit="10"/>
<path d="M6.71182 5.68066H8.67576C9.02236 5.68066 9.36557 5.75599 9.68579 5.9023C10.006 6.04862 10.297 6.26307 10.5421 6.53343C10.7871 6.80379 10.9815 7.12475 11.1142 7.47799C11.2468 7.83123 11.3151 8.20982 11.3151 8.59217V10.4777" stroke="black" stroke-width="1.02069" stroke-miterlimit="10"/>
<path d="M4.64924 5.67496C5.45554 5.67496 6.10919 4.95392 6.10919 4.06447C6.10919 3.17502 5.45554 2.45398 4.64924 2.45398C3.84293 2.45398 3.18929 3.17502 3.18929 4.06447C3.18929 4.95392 3.84293 5.67496 4.64924 5.67496Z" stroke="black" stroke-width="1.02069" stroke-miterlimit="10"/>
<path d="M8.16657 4.61466C8.97288 4.61466 9.62652 3.89362 9.62652 3.00417C9.62652 2.11472 8.97288 1.39368 8.16657 1.39368C7.36026 1.39368 6.70662 2.11472 6.70662 3.00417C6.70662 3.89362 7.36026 4.61466 8.16657 4.61466Z" stroke="black" stroke-width="1.02069" stroke-miterlimit="10"/>
</svg>
