<svg width="12" height="12" viewBox="0 0 12 12" fill="none" xmlns="http://www.w3.org/2000/svg">
<path d="M4.04983 7.22394C5.73421 7.22394 7.09967 5.85848 7.09967 4.1741C7.09967 2.48972 5.73421 1.12427 4.04983 1.12427C2.36546 1.12427 1 2.48972 1 4.1741C1 5.85848 2.36546 7.22394 4.04983 7.22394Z" stroke="black" stroke-width="1.02069" stroke-miterlimit="10"/>
<path d="M7.69092 6.13525L10.8561 9.30046C10.9673 9.41101 11.0555 9.54246 11.1157 9.68723C11.1759 9.832 11.2069 9.98723 11.2069 10.144C11.2069 10.3008 11.1759 10.4561 11.1157 10.6008C11.0555 10.7456 10.9673 10.8771 10.8561 10.9876V10.9876C10.6331 11.21 10.331 11.3348 10.0161 11.3348C9.70124 11.3348 9.39918 11.21 9.17618 10.9876L6.01099 7.8152" stroke="black" stroke-width="1.02069" stroke-miterlimit="10"/>
</svg>
